# xmcd
#
# Track frame offsets:
#       150
#       17943
#       37884
#       53116
#       68897
#       87774
#       89091
#       100412
#       114575
#       127945
#       143153
#       157554
#
# Disc length: 2298 seconds
#
# Revision: 0
# Processed by: cddbd v1.5.1PL0 Copyright (c) Steve Scherf et al.
# Submitted via: CD-DA_X-Tractor v0.24
#
DISCID=9508f80c
DTITLE=Robin Rogers - Crazy Cryin' Blues
DYEAR=2004
DGENRE=Blues
TTITLE0=Hesitation Blues
TTITLE1=Come On In This House
TTITLE2=It's A Blessing
TTITLE3=Travelin' Blues
TTITLE4=Hip Shakin' Mama
TTITLE5=Alma's Romance
TTITLE6=Wild About That Thing
TTITLE7=Crazy Cryin' Blues
TTITLE8=Me and My Chauffer Blues
TTITLE9=Black-Eyed Blues
TTITLE10=Conjur Man
TTITLE11=Yola My Blues Away
EXTD=
EXTT0=
EXTT1=
EXTT2=
EXTT3=
EXTT4=
EXTT5=
EXTT6=
EXTT7=
EXTT8=
EXTT9=
EXTT10=
EXTT11=
PLAYORDER=
